<svg xmlns="http://www.w3.org/2000/svg" version="1.1" xmlns:xlink="http://www.w3.org/1999/xlink" xmlns:svgjs="http://svgjs.dev/svgjs" width="1000" height="1000" viewBox="0 0 1000 1000"><rect width="1000" height="1000" fill="#ffffff"></rect><g transform="matrix(0.7,0,0,0.7,149.57575757575756,282.1265587044535)"><svg viewBox="0 0 396 247" data-background-color="#ffffff" preserveAspectRatio="xMidYMid meet" height="623" width="1000" xmlns="http://www.w3.org/2000/svg" xmlns:xlink="http://www.w3.org/1999/xlink"><g id="tight-bounds" transform="matrix(1,0,0,1,0.2400000000000091,-0.09999999999999432)"><svg viewBox="0 0 395.52 247.2" height="247.2" width="395.52"><g><svg></svg></g><g><svg viewBox="0 0 395.52 247.2" height="247.2" width="395.52"><g transform="matrix(1,0,0,1,144.2811747211896,47.215199999999996)"><svg viewBox="0 0 106.95765055762081 152.7696" height="152.7696" width="106.95765055762081"><g><svg viewBox="0 0 106.95765055762081 152.7696" height="152.7696" width="106.95765055762081"><g><svg viewBox="0 0 106.95765055762081 152.7696" height="152.7696" width="106.95765055762081"><g><svg viewBox="0 0 106.95765055762081 152.7696" height="152.7696" width="106.95765055762081"><g><svg viewBox="0 0 106.95765055762081 152.7696" height="152.7696" width="106.95765055762081"><g><svg viewBox="0 0 106.95765055762081 152.7696" height="152.7696" width="106.95765055762081"><g transform="matrix(1,0,0,1,0,0)"><svg width="106.95765055762081" viewBox="1.7000000476837158 -36 28.25 40.349998474121094" height="152.7696" data-palette-color="#89939e"><path d="M7.65 4.35L7.65 4.35Q4.7 4.35 3.2 3.38 1.7 2.4 1.7 0.15L1.7 0.15Q1.7-0.25 2.15-0.25L2.15-0.25Q2.55-0.25 3.48 0 4.4 0.25 6.95 0.25L6.95 0.25Q11.35 0.25 15.03-0.7 18.7-1.65 21.4-3.28 24.1-4.9 25.6-6.93 27.1-8.95 27.1-11.1L27.1-11.1Q27.1-13.1 25.93-14.3 24.75-15.5 22.85-16.13 20.95-16.75 18.7-16.98 16.45-17.2 14.25-17.2L14.25-17.2Q13.3-17.2 12.35-17.18 11.4-17.15 10.55-17.15L10.55-17.15Q9.45-13.25 8.38-9.18 7.3-5.1 6.15-1.25L6.15-1.25Q4.75-1.25 3.73-2 2.7-2.75 2.7-3.85L2.7-3.85Q2.7-4.35 2.9-5.1 3.1-5.85 3.4-6.75L3.4-6.75Q3.7-7.7 4.42-9.95 5.15-12.2 6.18-15.25 7.2-18.3 8.45-21.68 9.7-25.05 11.05-28.28 12.4-31.5 13.7-34.05L13.7-34.05Q11.65-33.65 10.33-33.02 9-32.4 8.22-31.93 7.45-31.45 7.05-31.45L7.05-31.45Q6.8-31.45 6.35-31.78 5.9-32.1 5.55-32.5 5.2-32.9 5.2-33.2L5.2-33.2Q7.85-34.3 10.68-35.15 13.5-36 17.55-36L17.55-36Q19.3-36 21.4-35.73 23.5-35.45 25.4-34.63 27.3-33.8 28.53-32.2 29.75-30.6 29.75-27.9L29.75-27.9Q29.75-25.65 28.8-24.03 27.85-22.4 26.25-21.28 24.65-20.15 22.75-19.45 20.85-18.75 19-18.35L19-18.35Q22.3-18.05 24.43-17.18 26.55-16.3 27.78-15.15 29-14 29.48-12.75 29.95-11.5 29.95-10.3L29.95-10.3Q29.95-7.4 28.43-5.05 26.9-2.7 24.4-0.95 21.9 0.8 18.9 1.98 15.9 3.15 12.95 3.75 10 4.35 7.65 4.35ZM11-18.8L11-18.8Q13.75-18.9 16.48-19.43 19.2-19.95 21.4-21.05 23.6-22.15 24.93-23.93 26.25-25.7 26.25-28.3L26.25-28.3Q26.25-30.8 24.98-32.13 23.7-33.45 21.65-33.98 19.6-34.5 17.3-34.5L17.3-34.5Q17.15-34.5 17.05-34.5 16.95-34.5 16.85-34.45L16.85-34.45Q15.1-31.05 13.68-27.05 12.25-23.05 11-18.8Z" opacity="1" transform="matrix(1,0,0,1,0,0)" fill="#000000" class="undefined-text-0" data-fill-palette-color="primary" id="text-0"></path></svg></g></svg></g></svg></g></svg></g></svg></g></svg></g></svg></g><g><path d="M177.079 0c30.402 0 58.24 10.976 79.768 29.183l-11.147 0c-19.26-14.022-42.974-22.294-68.621-22.295-25.647 0-49.361 8.272-68.621 22.295l-11.147 0c21.528-18.206 49.366-29.183 79.768-29.183zM177.079 247.2c-30.402 0-58.24-10.976-79.768-29.183l11.147 0c19.26 14.022 42.974 22.294 68.621 22.295 25.647 0 49.361-8.272 68.621-22.295l11.147 0c-21.528 18.206-49.366 29.183-79.768 29.183z" fill="#89939e" stroke="transparent" data-fill-palette-color="tertiary"></path></g></svg></g><defs></defs></svg><rect width="395.52" height="247.2" fill="none" stroke="none" visibility="hidden"></rect></g></svg></g></svg>